<svg xmlns="http://www.w3.org/2000/svg" width="960" height="600" viewBox="0 0 960 600" role="img" aria-labelledby="title desc">
  <title id="title">p-xing.js puzzle board screenshot</title>
  <desc id="desc">A light theme p-xing.js game screen showing the Tiny Rocket pixel crossing puzzle, toolbar, row clues, and column clues.</desc>
  <rect width="960" height="600" fill="#f8f9fa"/>
  <rect x="0" y="0" width="960" height="56" fill="#ffffff"/>
  <rect x="0" y="55" width="960" height="1" fill="#e5e7eb"/>
  <text x="32" y="36" fill="#1a1a1a" font-family="ui-monospace, SFMono-Regular, Menlo, monospace" font-size="20" font-weight="700">p-xing.js</text>
  <g font-family="system-ui, -apple-system, BlinkMacSystemFont, sans-serif" font-size="14" font-weight="600">
    <rect x="622" y="14" width="52" height="28" rx="6" fill="#f3f4f6" stroke="#e5e7eb"/>
    <text x="638" y="33" fill="#6b7280">0:12</text>
    <rect x="682" y="14" width="64" height="28" rx="6" fill="#f3f4f6" stroke="#e5e7eb"/>
    <text x="700" y="33" fill="#1a1a1a">Undo</text>
    <rect x="754" y="14" width="78" height="28" rx="6" fill="#f3f4f6" stroke="#e5e7eb"/>
    <text x="771" y="33" fill="#1a1a1a">Restart</text>
    <rect x="840" y="14" width="62" height="28" rx="6" fill="#f3f4f6" stroke="#e5e7eb"/>
    <text x="856" y="33" fill="#1a1a1a">Theme</text>
  </g>
  <text x="480" y="116" text-anchor="middle" fill="#1a1a1a" font-family="system-ui, -apple-system, BlinkMacSystemFont, sans-serif" font-size="16" font-weight="700">Tiny Rocket</text>
  <text x="480" y="139" text-anchor="middle" fill="#6b7280" font-family="system-ui, -apple-system, BlinkMacSystemFont, sans-serif" font-size="13">starter · 5x5</text>
  <g transform="translate(328 174)" font-family="ui-monospace, SFMono-Regular, Menlo, monospace" font-size="16" font-weight="700" fill="#1a1a1a">
    <text x="108" y="22" text-anchor="middle">1</text>
    <text x="144" y="5" text-anchor="middle">1</text>
    <text x="144" y="25" text-anchor="middle">1</text>
    <text x="180" y="22" text-anchor="middle">5</text>
    <text x="216" y="5" text-anchor="middle">1</text>
    <text x="216" y="25" text-anchor="middle">1</text>
    <text x="252" y="22" text-anchor="middle">1</text>
    <text x="48" y="68" text-anchor="end">1</text>
    <text x="48" y="104" text-anchor="end">3</text>
    <text x="48" y="140" text-anchor="end">1</text>
    <text x="48" y="176" text-anchor="end">3</text>
    <text x="8" y="212">1</text>
    <text x="28" y="212">1</text>
    <text x="48" y="212">1</text>
  </g>
  <g transform="translate(400 210)">
    <rect x="0" y="0" width="182" height="182" fill="#d1d5db"/>
    <g stroke="#d1d5db" stroke-width="1">
      <rect x="2" y="2" width="35" height="35" fill="#ffffff"/>
      <rect x="38" y="2" width="35" height="35" fill="#ffffff"/>
      <rect x="74" y="2" width="35" height="35" fill="#1e293b"/>
      <rect x="110" y="2" width="35" height="35" fill="#ffffff"/>
      <rect x="146" y="2" width="35" height="35" fill="#ffffff"/>
      <rect x="2" y="38" width="35" height="35" fill="#ffffff"/>
      <rect x="38" y="38" width="35" height="35" fill="#1e293b"/>
      <rect x="74" y="38" width="35" height="35" fill="#1e293b"/>
      <rect x="110" y="38" width="35" height="35" fill="#1e293b"/>
      <rect x="146" y="38" width="35" height="35" fill="#ffffff"/>
      <rect x="2" y="74" width="35" height="35" fill="#ffffff"/>
      <rect x="38" y="74" width="35" height="35" fill="#ffffff"/>
      <rect x="74" y="74" width="35" height="35" fill="#1e293b"/>
      <rect x="110" y="74" width="35" height="35" fill="#ffffff"/>
      <rect x="146" y="74" width="35" height="35" fill="#ffffff"/>
      <rect x="2" y="110" width="35" height="35" fill="#ffffff"/>
      <rect x="38" y="110" width="35" height="35" fill="#1e293b"/>
      <rect x="74" y="110" width="35" height="35" fill="#1e293b"/>
      <rect x="110" y="110" width="35" height="35" fill="#1e293b"/>
      <rect x="146" y="110" width="35" height="35" fill="#ffffff"/>
      <rect x="2" y="146" width="35" height="35" fill="#1e293b"/>
      <rect x="38" y="146" width="35" height="35" fill="#ffffff"/>
      <rect x="74" y="146" width="35" height="35" fill="#1e293b"/>
      <rect x="110" y="146" width="35" height="35" fill="#ffffff"/>
      <rect x="146" y="146" width="35" height="35" fill="#1e293b"/>
    </g>
  </g>
  <text x="480" y="460" text-anchor="middle" fill="#6b7280" font-family="system-ui, -apple-system, BlinkMacSystemFont, sans-serif" font-size="14">Open page -> first puzzle visible -> solve -> save a local score</text>
</svg>
